<svg width="156" height="56" viewBox="0 0 156 56" xmlns="http://www.w3.org/2000/svg" xmlns:xlink="http://www.w3.org/1999/xlink"><defs><path id="a" d="M0 0h156v56H0z"/><linearGradient x1="91.482%" y1="4.957%" x2="-71.165%" y2="87.867%" id="b"><stop stop-color="#00A0FF" offset="0%"/><stop stop-color="#00A1FF" offset=".66%"/><stop stop-color="#00BEFF" offset="26.01%"/><stop stop-color="#00D2FF" offset="51.22%"/><stop stop-color="#00DFFF" offset="76.04%"/><stop stop-color="#00E3FF" offset="100%"/></linearGradient><linearGradient x1="107.586%" y1="50%" x2="-190.724%" y2="50%" id="c"><stop stop-color="#FFE000" offset="0%"/><stop stop-color="#FFBD00" offset="40.87%"/><stop stop-color="#FFA500" offset="77.54%"/><stop stop-color="#FF9C00" offset="100%"/></linearGradient><linearGradient x1="36.237%" y1="52.977%" x2="-134.632%" y2="272.094%" id="d"><stop stop-color="#FF3A44" offset="0%"/><stop stop-color="#C31162" offset="100%"/></linearGradient><linearGradient x1="-68.789%" y1="-89.292%" x2="7.512%" y2="8.586%" id="e"><stop stop-color="#32A071" offset="0%"/><stop stop-color="#2DA771" offset="6.85%"/><stop stop-color="#15CF74" offset="47.62%"/><stop stop-color="#06E775" offset="80.09%"/><stop stop-color="#00F076" offset="100%"/></linearGradient></defs><g fill="none" fill-rule="evenodd"><g><use fill="#FFF" xlink:href="#a"/><path stroke-opacity=".4" stroke="#FFF" d="M.5.5h155v55H.5z"/></g><path d="M.424 23.208c-.27-.278-.424-.71-.424-1.27V1.963C0 1.403.155.97.424.693L.49.63l11.325 11.19v.265L.49 23.275l-.066-.067z" fill="url(#b)" transform="translate(23 16)"/><path d="M15.586 8.09l-3.77 3.73v.265l3.775 3.73.085-.047 4.47-2.515c1.277-.713 1.277-1.888 0-2.606l-4.47-2.51-.09-.048z" fill="url(#c)" transform="translate(23 16)"/><path d="M15.675 8.137l-3.86 3.816L.425.693c.423-.44 1.114-.494 1.9-.054l13.35 7.497" fill="url(#d)" transform="translate(23 16)"/><path d="M15.675 15.768l-13.35 7.498c-.786.436-1.477.382-1.9-.058l11.39-11.255 3.86 3.815z" fill="url(#e)" transform="translate(23 16)"/><g fill="#54575D"><path d="M114.487 38.947h1.745v-11.53h-1.745v11.53zm15.688-7.376l-2 4.998h-.06l-2.068-4.997h-1.877l3.107 6.985-1.772 3.886h1.818l4.788-10.87h-1.935zm-9.88 6.066c-.568 0-1.36-.278-1.36-.977 0-.892.988-1.235 1.844-1.235.765 0 1.125.168 1.59.387-.137 1.068-1.066 1.824-2.074 1.824zm.212-6.317c-1.258 0-2.566.547-3.103 1.764l1.544.64c.333-.64.943-.848 1.59-.848.902 0 1.818.536 1.832 1.482v.12c-.314-.178-.988-.445-1.818-.445-1.663 0-3.358.905-3.358 2.595 0 1.544 1.362 2.54 2.894 2.54 1.17 0 1.817-.523 2.223-1.13h.06v.89h1.682v-4.422c0-2.044-1.545-3.187-3.545-3.187zm-10.76 1.655h-2.477v-3.953h2.478c1.3 0 2.042 1.066 2.042 1.976 0 .892-.742 1.977-2.042 1.977zm-.044-5.557h-4.174v11.53h1.74v-4.37h2.433c1.933 0 3.828-1.382 3.828-3.58 0-2.197-1.9-3.58-3.827-3.58zM86.953 37.64c-1.203 0-2.21-.994-2.21-2.364 0-1.382 1.007-2.39 2.21-2.39 1.185 0 2.12 1.008 2.12 2.39 0 1.37-.935 2.365-2.12 2.365zm1.996-5.426h-.06c-.392-.46-1.14-.874-2.086-.874-1.987 0-3.805 1.725-3.805 3.936 0 2.2 1.817 3.91 3.804 3.91.947 0 1.694-.42 2.087-.892h.06v.563c0 1.5-.812 2.306-2.12 2.306-1.066 0-1.727-.76-2-1.4l-1.517.625c.438 1.04 1.596 2.32 3.518 2.32 2.046 0 3.773-1.19 3.773-4.085V31.58H88.95v.634zm2.857 6.733h1.744v-11.53h-1.743v11.53zm4.314-3.806c-.044-1.512 1.19-2.286 2.074-2.286.693 0 1.28.342 1.477.832l-3.55 1.455zm5.414-1.305c-.328-.877-1.34-2.495-3.4-2.495-2.04 0-3.74 1.59-3.74 3.924 0 2.197 1.682 3.922 3.937 3.922 1.823 0 2.876-1.1 3.308-1.74l-1.353-.89c-.45.653-1.065 1.085-1.954 1.085-.883 0-1.516-.4-1.922-1.188l5.308-2.17-.182-.447zm-42.278-1.292v1.667h4.027c-.117.93-.433 1.616-.915 2.094-.59.576-1.504 1.216-3.112 1.216-2.48 0-4.42-1.978-4.42-4.427 0-2.45 1.94-4.427 4.42-4.427 1.34 0 2.315.517 3.034 1.19l1.19-1.176c-1.007-.95-2.347-1.68-4.224-1.68-3.4 0-6.256 2.734-6.256 6.093 0 3.36 2.857 6.093 6.256 6.093 1.836 0 3.217-.595 4.3-1.71 1.113-1.1 1.46-2.645 1.46-3.892 0-.388-.033-.744-.092-1.04h-5.668zm10.338 5.098c-1.203 0-2.24-.98-2.24-2.376 0-1.415 1.037-2.378 2.24-2.378 1.203 0 2.238.963 2.238 2.378 0 1.395-1.035 2.377-2.238 2.377zm0-6.3c-2.196 0-3.98 1.65-3.98 3.924 0 2.256 1.784 3.922 3.98 3.922 2.195 0 3.983-1.666 3.983-3.922 0-2.275-1.788-3.924-3.983-3.924zm8.69 6.3c-1.203 0-2.238-.98-2.238-2.376 0-1.415 1.035-2.378 2.237-2.378 1.203 0 2.242.963 2.242 2.378 0 1.395-1.04 2.377-2.242 2.377zm0-6.3c-2.193 0-3.983 1.65-3.983 3.924 0 2.256 1.79 3.922 3.983 3.922 2.196 0 3.988-1.666 3.988-3.922 0-2.275-1.79-3.924-3.987-3.924z"/></g></g></svg>