<svg width="156" height="56" viewBox="0 0 156 56" xmlns="http://www.w3.org/2000/svg" xmlns:xlink="http://www.w3.org/1999/xlink"><defs><path id="a" d="M0 0h156v56H0z"/></defs><g fill="none" fill-rule="evenodd"><g><use fill="#FFF" xlink:href="#a"/><path stroke-opacity=".4" stroke="#FFF" d="M.5.5h155v55H.5z"/></g><g fill="#54575D"><path d="M67.823 39.214H65.91l-1.047-3.292h-3.64l-1 3.292h-1.86l3.608-11.207h2.23l3.623 11.207zm-3.276-4.673l-.947-2.925c-.1-.3-.29-1.003-.565-2.11H63c-.11.475-.288 1.18-.53 2.11l-.932 2.926h3.01zM77.085 35.074c0 1.374-.373 2.46-1.12 3.258-.67.71-1.5 1.065-2.49 1.065-1.072 0-1.84-.382-2.31-1.146v4.24h-1.794v-8.7c0-.864-.022-1.75-.066-2.657h1.58l.1 1.28h.033c.6-.964 1.508-1.447 2.727-1.447.953 0 1.75.377 2.386 1.13.635.756.955 1.748.955 2.978zm-1.83.066c0-.787-.176-1.435-.532-1.946-.388-.532-.91-.798-1.563-.798-.443 0-.845.148-1.205.44-.36.295-.596.68-.706 1.157-.057.222-.085.403-.085.546v1.348c0 .587.18 1.083.54 1.488.362.405.83.608 1.406.608.677 0 1.203-.262 1.58-.782s.566-1.208.566-2.062zM86.38 35.074c0 1.374-.374 2.46-1.12 3.258-.67.71-1.5 1.065-2.493 1.065-1.07 0-1.84-.382-2.307-1.146v4.24h-1.796v-8.7c0-.864-.022-1.75-.066-2.657h1.58l.1 1.28h.033c.6-.964 1.507-1.447 2.727-1.447.953 0 1.75.377 2.387 1.13.635.756.955 1.748.955 2.978zm-1.83.066c0-.787-.18-1.435-.534-1.946-.388-.532-.908-.798-1.56-.798-.444 0-.847.148-1.208.44-.36.295-.595.68-.706 1.157-.054.222-.084.403-.084.546v1.348c0 .587.18 1.083.54 1.488.36.404.83.608 1.406.608.677 0 1.204-.262 1.58-.782.376-.52.565-1.208.565-2.062zM96.77 36.07c0 .954-.333 1.73-.996 2.33-.73.652-1.747.98-3.052.98-1.206 0-2.173-.233-2.902-.698l.415-1.497c.787.467 1.652.7 2.594.7.676 0 1.202-.154 1.578-.458.376-.305.566-.712.566-1.22 0-.457-.157-.838-.466-1.15-.31-.31-.825-.598-1.546-.863-1.962-.732-2.944-1.802-2.944-3.21 0-.92.347-1.672 1.04-2.26.69-.59 1.61-.883 2.75-.883 1.02 0 1.87.18 2.545.533l-.45 1.464c-.636-.344-1.352-.515-2.154-.515-.634 0-1.13.155-1.486.465-.3.277-.45.615-.45 1.016 0 .442.172.81.515 1.097.297.265.84.554 1.628.864.965.39 1.674.842 2.128 1.363.457.52.685 1.17.685 1.943zM102.722 32.48h-1.98v3.924c0 .998.35 1.495 1.048 1.495.32 0 .587-.028.798-.084l.05 1.363c-.354.132-.82.198-1.397.198-.708 0-1.262-.216-1.662-.65-.398-.432-.6-1.157-.6-2.178v-4.073H97.8V31.13h1.18v-1.48l1.763-.532v2.012h1.98v1.35zM111.633 35.107c0 1.242-.356 2.262-1.065 3.06-.74.82-1.728 1.23-2.96 1.23-1.186 0-2.13-.394-2.834-1.18-.704-.787-1.056-1.78-1.056-2.975 0-1.253.364-2.278 1.09-3.076.725-.798 1.704-1.197 2.934-1.197 1.186 0 2.138.393 2.86 1.18.688.762 1.03 1.748 1.03 2.957zm-1.86.04c0-.74-.16-1.374-.482-1.905-.375-.642-.914-.963-1.613-.963-.72 0-1.27.32-1.646.962-.32.53-.48 1.177-.48 1.94 0 .74.16 1.378.48 1.907.39.64.93.962 1.632.962.687 0 1.225-.328 1.614-.98.33-.543.496-1.182.496-1.924zM117.47 32.712c-.177-.033-.367-.05-.565-.05-.63 0-1.12.238-1.463.716-.298.42-.448.953-.448 1.596v4.24h-1.796v-5.536c0-.93-.017-1.78-.052-2.544h1.564l.066 1.546h.05c.19-.53.488-.96.897-1.28.4-.29.832-.434 1.298-.434.167 0 .316.012.45.033v1.712zM125.5 34.79c0 .323-.02.594-.065.815h-5.386c.02.8.28 1.41.78 1.83.454.377 1.04.565 1.762.565.797 0 1.525-.126 2.18-.38l.28 1.244c-.764.334-1.667.5-2.708.5-1.253 0-2.237-.37-2.953-1.105-.713-.738-1.07-1.728-1.07-2.97 0-1.216.332-2.23.998-3.04.697-.864 1.64-1.296 2.825-1.296 1.165 0 2.046.432 2.645 1.296.474.684.713 1.533.713 2.54zm-1.71-.465c.01-.533-.107-.992-.35-1.38-.31-.5-.79-.75-1.43-.75-.587 0-1.065.244-1.43.733-.298.388-.476.854-.53 1.396h3.74z"/></g><path d="M48.97 34.703c-.366.84-.8 1.61-1.3 2.32-.686.968-1.247 1.637-1.68 2.01-.668.61-1.386.922-2.154.94-.552 0-1.217-.156-1.99-.47-.778-.315-1.492-.47-2.145-.47-.683 0-1.418.155-2.203.47-.786.314-1.42.48-1.905.495-.736.03-1.47-.29-2.204-.966-.468-.404-1.053-1.098-1.754-2.08-.752-1.05-1.37-2.265-1.855-3.652-.52-1.497-.78-2.948-.78-4.352 0-1.608.35-2.995 1.053-4.158.552-.934 1.287-1.67 2.206-2.21.918-.542 1.91-.817 2.98-.835.586 0 1.353.18 2.307.532.95.354 1.56.533 1.83.533.2 0 .878-.21 2.028-.628 1.087-.388 2.005-.548 2.757-.485 2.037.163 3.568.96 4.586 2.393-1.822 1.094-2.724 2.627-2.706 4.593.017 1.53.577 2.806 1.68 3.817.498.47 1.056.833 1.676 1.09-.134.387-.276.758-.427 1.113zM44.3 16.48c0 1.2-.443 2.32-1.325 3.358-1.064 1.234-2.35 1.946-3.747 1.834-.018-.144-.028-.296-.028-.455 0-1.152.506-2.386 1.405-3.394.448-.51 1.02-.935 1.71-1.273.692-.334 1.345-.518 1.96-.55.017.16.025.32.025.48z" fill="#54575D"/></g></svg>